<svg xmlns="http://www.w3.org/2000/svg" height="2048" preserveAspectRatio="none" style="display: block;" version="1.1" viewBox="0 0 2048 2048" width="2048">
<path d="M 0 0 L 2048 0 L 2048 2048 L 0 2048 L 0 0 z" fill="rgb(244,244,232)" transform="translate(0,0)"></path>
<path d="M 949.063 242.652 C 974.041 229.166 999.209 216.037 1024.56 203.268 C 1047.54 214.62 1078.66 230.211 1100.86 242.898 L 1107.1 275.631 L 1201.41 323.256 L 1218.5 418.991 C 1219.35 423.639 1225.41 453.705 1225.37 456.641 C 1222.73 457.131 1222.85 457.012 1220.2 456.349 C 1220.02 465.615 1217.76 483.254 1224.28 489.664 C 1232.6 482.786 1246.55 472.102 1255.72 466.208 C 1259.63 497.873 1262.9 529.945 1266.49 561.689 C 1269.88 591.624 1274.4 624.079 1276.36 654.012 C 1269.27 662.052 1256.76 674.221 1250.97 681.528 C 1253.49 691.767 1257.1 706.886 1258.5 717.312 C 1248.6 726.015 1238.98 734.532 1228.7 742.807 L 1125.12 826.205 L 1169.25 918.538 C 1176.19 933.015 1185.04 950.164 1191.17 964.638 C 1193.47 977.9 1195.18 994.324 1196.66 1007.82 C 1200.29 1040.81 1206.52 1074.08 1210.41 1106.88 C 1202.91 1114.15 1171.04 1148.27 1166.51 1155.7 C 1154.3 1168.71 1142.16 1181.78 1130.09 1194.92 C 1124.73 1200.77 1115.6 1210.24 1111.13 1216.26 C 1115.82 1220.73 1118.89 1223.46 1124 1227.47 L 1093.43 1345.15 C 1090.06 1358.27 1083.6 1386.61 1078.95 1398.23 C 1076.09 1405.4 1050.45 1430.32 1044.53 1438.25 C 1037.21 1448.04 1031.04 1459.14 1024.52 1469.66 C 1017.08 1458.12 1011.48 1447.69 1002.95 1436.75 C 997.208 1429.39 973.098 1405.8 970.456 1400.02 C 965.684 1389.58 959.448 1360.46 956.284 1347.91 C 946.36 1307.85 936.224 1267.84 925.876 1227.88 C 930.193 1224.12 933.838 1220.22 937.804 1216.11 L 882.62 1155.32 C 877.562 1147.01 848.813 1118.76 839.383 1106.54 C 845.244 1058.96 851.554 1011.43 858.314 963.965 C 864.526 948.421 872.767 933.359 879.929 918.159 C 894.373 887.506 909.632 856.874 923.093 825.775 L 820.751 742.387 C 810.94 734.419 800.597 725.128 790.973 716.798 C 793.466 704.761 796.107 692.755 798.896 680.783 C 793.188 673.569 781.21 661.205 774.632 653.952 C 778.354 630.548 781.176 600.696 783.913 576.816 C 788.292 539.991 792.4 503.134 796.236 466.248 C 805.478 472.698 818.213 481.578 826.405 489.124 C 830.696 483.978 829.779 463.888 829.938 455.749 L 825.016 456.862 L 824.133 455.883 C 831.701 411.907 840.648 366.998 848.745 322.992 C 879.76 307.438 912.44 291.645 942.934 275.304 C 945.063 264.437 947.106 253.552 949.063 242.652 z" fill="rgb(34,60,165)" transform="translate(0,0)"></path>
<path d="M 820.751 742.387 L 947.558 646.845 C 962.908 635.148 987.283 617.765 1001.08 605.714 L 994.903 1014.41 C 1001.89 1023.49 1015.8 1042.21 1023.55 1050.13 C 1032.74 1039.35 1044.07 1025.64 1052.21 1014.04 L 1049.03 744.22 C 1048.38 698.566 1048.73 652.117 1047.11 606.522 L 1168.31 697.8 C 1187.07 711.873 1210.86 728.381 1228.7 742.807 L 1125.12 826.205 L 1169.25 918.538 C 1176.19 933.015 1185.04 950.164 1191.17 964.638 C 1193.47 977.9 1195.18 994.324 1196.66 1007.82 C 1200.29 1040.81 1206.52 1074.08 1210.41 1106.88 C 1202.91 1114.15 1171.04 1148.27 1166.51 1155.7 C 1154.3 1168.71 1142.16 1181.78 1130.09 1194.92 C 1124.73 1200.77 1115.6 1210.24 1111.13 1216.26 C 1115.82 1220.73 1118.89 1223.46 1124 1227.47 L 1093.43 1345.15 C 1090.06 1358.27 1083.6 1386.61 1078.95 1398.23 C 1076.09 1405.4 1050.45 1430.32 1044.53 1438.25 C 1037.21 1448.04 1031.04 1459.14 1024.52 1469.66 C 1017.08 1458.12 1011.48 1447.69 1002.95 1436.75 C 997.208 1429.39 973.098 1405.8 970.456 1400.02 C 965.684 1389.58 959.448 1360.46 956.284 1347.91 C 946.36 1307.85 936.224 1267.84 925.876 1227.88 C 930.193 1224.12 933.838 1220.22 937.804 1216.11 L 882.62 1155.32 C 877.562 1147.01 848.813 1118.76 839.383 1106.54 C 845.244 1058.96 851.554 1011.43 858.314 963.965 C 864.526 948.421 872.767 933.359 879.929 918.159 C 894.373 887.506 909.632 856.874 923.093 825.775 L 820.751 742.387 z" fill="rgb(63,92,212)" transform="translate(0,0)"></path>
<path d="M 937.804 1216.11 C 970.71 1244.18 998.408 1283.7 1024.27 1318.11 C 1047.99 1289.3 1067.58 1257.49 1095.61 1232.73 C 1100.89 1228.07 1106.48 1221.54 1111.13 1216.26 C 1115.82 1220.73 1118.89 1223.46 1124 1227.47 L 1093.43 1345.15 C 1090.06 1358.27 1083.6 1386.61 1078.95 1398.23 C 1076.09 1405.4 1050.45 1430.32 1044.53 1438.25 C 1037.21 1448.04 1031.04 1459.14 1024.52 1469.66 C 1017.08 1458.12 1011.48 1447.69 1002.95 1436.75 C 997.208 1429.39 973.098 1405.8 970.456 1400.02 C 965.684 1389.58 959.448 1360.46 956.284 1347.91 C 946.36 1307.85 936.224 1267.84 925.876 1227.88 C 930.193 1224.12 933.838 1220.22 937.804 1216.11 z" fill="rgb(1,0,2)" transform="translate(0,0)"></path>
<path d="M 887.103 1028.79 C 900.074 1039.06 920.373 1065.13 933.457 1077.41 C 947.271 1090.37 962.06 1099.79 977.502 1110.66 C 982.606 1135.56 990.408 1182.19 995.848 1208.59 C 995.57 1209.07 995.292 1209.54 995.014 1210.02 L 992.254 1210.02 L 972.26 1208.59 C 951.967 1193.31 923.962 1166.63 904.346 1148.97 L 880.472 1048.78 C 882.773 1042.71 885.05 1035.07 887.103 1028.79 z" fill="rgb(1,0,2)" transform="translate(0,0)"></path>
<path d="M 1160.23 1029.75 L 1161.35 1030.29 C 1163.92 1035.95 1165.82 1042.81 1167.7 1048.83 L 1143.97 1148.99 C 1122.83 1166.62 1097.89 1189.22 1077.46 1207.79 C 1071.78 1208.58 1065.96 1209.11 1060.25 1209.71 C 1056.89 1210.05 1056.41 1210.32 1053.1 1209.45 C 1052.22 1205.48 1068.83 1123.31 1070.88 1110.78 C 1078.77 1105.34 1102.88 1089.33 1108.55 1083.7 C 1125.46 1066.93 1143.69 1047.17 1160.23 1029.75 z" fill="rgb(1,0,2)" transform="translate(0,0)"></path>
<path d="M 949.063 242.652 C 974.041 229.166 999.209 216.037 1024.56 203.268 C 1047.54 214.62 1078.66 230.211 1100.86 242.898 L 1107.1 275.631 L 1201.41 323.256 L 1218.5 418.991 C 1219.35 423.639 1225.41 453.705 1225.37 456.641 C 1222.73 457.131 1222.85 457.012 1220.2 456.349 C 1217.38 454.023 1185.32 444.801 1179.41 443.001 L 1097.92 417.725 C 1083.39 413.233 1057.73 405.85 1044.9 400.228 C 1045.08 356.743 1043.99 301.682 1042.19 257.736 C 1041.86 249.669 1028.51 214.907 1025.09 203.667 C 1021.83 215.268 1006.76 250.377 1006.43 258.102 C 1004.49 302.268 1003.69 356.783 1003.86 400.474 C 989.295 405.76 970.997 410.683 955.919 415.474 L 875.989 441.157 C 861.799 445.581 843.571 450.622 829.938 455.749 L 825.016 456.862 L 824.133 455.883 C 831.701 411.907 840.648 366.998 848.745 322.992 C 879.76 307.438 912.44 291.645 942.934 275.304 C 945.063 264.437 947.106 253.552 949.063 242.652 z" fill="rgb(63,92,212)" transform="translate(0,0)"></path>
<path d="M 1044.94 405.167 C 1060.45 416.211 1081.24 428.797 1097.73 439.45 C 1132.81 462.297 1168.18 484.683 1203.85 506.603 C 1212.06 501.111 1217.54 496.916 1224.28 489.664 C 1232.6 482.786 1246.55 472.102 1255.72 466.208 C 1259.63 497.873 1262.9 529.945 1266.49 561.689 C 1269.88 591.624 1274.4 624.079 1276.36 654.012 C 1269.27 662.052 1256.76 674.221 1250.97 681.528 C 1241.17 676.047 1199.77 660.131 1187.66 655.144 L 1047.07 596.944 C 1047.71 534.787 1045.48 467.776 1044.94 405.167 z" fill="rgb(63,92,212)" transform="translate(0,0)"></path>
<path d="M 846.18 506.353 C 863.412 494.532 883.573 482.685 901.438 471.346 C 935.697 449.46 969.833 427.384 1003.85 405.118 C 1002.45 467.425 1000.89 535.01 1001.14 597.226 C 940.034 624.591 875.463 647.717 814.162 675.002 C 810.064 676.826 803.066 679.664 798.896 680.783 C 793.188 673.569 781.21 661.205 774.632 653.952 C 778.354 630.548 781.176 600.696 783.913 576.816 C 788.292 539.991 792.4 503.134 796.236 466.248 C 805.478 472.698 818.213 481.578 826.405 489.124 C 829.486 493.697 841.445 502.749 846.18 506.353 z" fill="rgb(63,92,212)" transform="translate(0,0)"></path>
<path d="M 1548.86 450.133 L 1556.12 443.679 C 1554.35 447.913 1552.08 452.937 1550.52 457.167 C 1544.29 473.975 1537.98 490.751 1531.57 507.493 C 1519.22 539.93 1518.15 541.157 1517.5 575.566 C 1517.23 593.928 1516.85 612.288 1516.35 630.645 L 1510.92 822.224 C 1510.17 851.03 1510.43 888.704 1508.49 916.319 C 1509.51 917.328 1490.6 906.359 1489.73 905.839 L 1474.17 916.609 C 1466.81 879.89 1459.11 843.241 1451.06 806.668 C 1441.21 759.081 1430.97 711.576 1420.33 664.159 L 1277.36 855.568 C 1247.54 895.962 1223.12 926.515 1191.17 964.638 C 1185.04 950.164 1176.19 933.015 1169.25 918.538 L 1125.12 826.205 L 1228.7 742.807 C 1238.98 734.532 1248.6 726.015 1258.5 717.312 C 1292.63 689.983 1331.8 650.638 1364.6 620.869 C 1426.37 564.816 1486.82 505.858 1548.86 450.133 z" fill="rgb(249,64,33)" transform="translate(0,0)"></path>
<path d="M 494.226 444.04 C 504.104 454.975 525.072 473.536 536.188 483.802 L 611.997 553.695 C 649.143 588.286 686.505 622.645 724.08 656.77 C 744.952 675.859 769.255 699.04 790.973 716.798 C 800.597 725.128 810.94 734.419 820.751 742.387 L 923.093 825.775 C 909.632 856.874 894.373 887.506 879.929 918.159 C 872.767 933.359 864.526 948.421 858.314 963.965 C 831.454 936.774 795.071 886.602 772.187 855.194 C 725.915 792.182 675.929 728.356 630.808 664.99 L 595.988 826.304 C 590.316 852.691 583.047 892.492 576.068 917.534 C 570.25 915.052 564.507 909.561 559.813 905.317 C 553.084 908.722 547.093 912.317 540.755 916.364 C 540.795 912.793 540.645 909.499 540.491 905.931 L 539.817 906.206 C 538.87 902.139 539.024 879.873 538.993 874.248 C 538.921 855.081 538.672 835.916 538.247 816.754 L 534.692 615.754 C 534.187 593.686 534.956 567.127 532.886 545.435 C 532.359 539.912 522.606 515.615 519.834 508.471 C 511.498 486.915 502.962 465.437 494.226 444.04 z" fill="rgb(249,64,33)" transform="translate(0,0)"></path>
<path d="M 1191.17 964.638 C 1223.12 926.515 1247.54 895.962 1277.36 855.568 C 1279.53 883.39 1280.84 920.168 1284.06 946.625 L 1251.43 1010.22 C 1260.61 1040.94 1268.06 1073.31 1276.22 1104.44 C 1288.08 1149.62 1289.35 1199.07 1297.32 1245.2 C 1314.59 1220.29 1332.04 1194.4 1349.63 1169.79 C 1348.53 1205.8 1347.66 1241.81 1347.01 1277.83 C 1346.82 1287.5 1346.79 1320.38 1345.41 1328.75 C 1343.24 1341.84 1332.84 1371.15 1328.17 1385.68 L 1292.57 1496.58 C 1255.8 1611.5 1220.24 1730.55 1181.76 1844.54 C 1180.14 1841.39 1180.16 1841.37 1179.48 1837.99 C 1186.97 1783.87 1192.35 1726.19 1198.53 1671.68 L 1233.3 1360.4 L 1247.5 1345.37 C 1239.25 1328.83 1230.47 1305.45 1222.86 1288.04 C 1203.72 1244.27 1186.01 1199.31 1166.51 1155.7 C 1171.04 1148.27 1202.91 1114.15 1210.41 1106.88 C 1206.52 1074.08 1200.29 1040.81 1196.66 1007.82 C 1195.18 994.324 1193.47 977.9 1191.17 964.638 z" fill="rgb(34,60,165)" transform="translate(0,0)"></path>
<path d="M 772.187 855.194 C 795.071 886.602 831.454 936.774 858.314 963.965 C 851.554 1011.43 845.244 1058.96 839.383 1106.54 C 848.813 1118.76 877.562 1147.01 882.62 1155.32 C 858.362 1210.17 835.562 1266.02 811.861 1321.14 C 808.437 1329.1 804.959 1337.28 801.772 1345.34 C 806.297 1350.21 811.42 1355.99 816.117 1360.56 L 846.073 1632.52 C 853.5 1700.51 860.329 1771.06 869.455 1838.65 L 869.314 1840.31 C 869.178 1842.37 868.613 1843.28 867.466 1845 C 854.577 1807.02 842.805 1766.62 830.614 1728.22 L 752.68 1483.44 L 720.097 1383.33 C 716.651 1372.96 705.205 1340.8 703.702 1331.42 C 701.979 1320.66 701.973 1288.99 701.724 1276.61 C 701.121 1241.06 700.295 1205.5 699.246 1169.96 C 717.119 1194.23 735.355 1221.94 752.524 1246.97 C 760.196 1193.88 762.426 1141.13 777.157 1089.29 C 784.366 1063.91 791.631 1035.56 797.523 1009.8 C 789.141 991.324 774.697 965.365 765.151 946.295 C 767.498 916.499 768.934 884.719 772.187 855.194 z" fill="rgb(34,60,165)" transform="translate(0,0)"></path>
<path d="M 539.817 906.206 L 540.491 905.931 C 540.645 909.499 540.795 912.793 540.755 916.364 C 547.093 912.317 553.084 908.722 559.813 905.317 C 564.507 909.561 570.25 915.052 576.068 917.534 C 576.879 920.068 712.938 1021.5 725.823 1031.52 C 704.68 1059.44 683.436 1090.46 663.197 1119.11 C 635.163 1158.38 607.349 1197.81 579.757 1237.4 C 587.798 1214.1 595.368 1188.35 602.931 1164.63 C 614.876 1127.77 626.574 1090.82 638.024 1053.79 C 611.887 1017.68 584.154 982.662 558.151 946.561 C 524.475 979.156 490.278 1015.35 457.364 1048.99 C 471.899 1111.7 485.001 1180.78 501.889 1242.45 C 488.129 1222.29 472.575 1192.77 459.615 1171.31 C 429.287 1121.07 400.458 1067.96 369.681 1018.12 C 425.632 984.415 484.435 951.57 539.702 917.157 L 539.817 906.206 z" fill="rgb(249,64,33)" transform="translate(0,0)"></path>
<path d="M 1474.17 916.609 L 1489.73 905.839 C 1490.6 906.359 1509.51 917.328 1508.49 916.319 C 1517.61 924.075 1544.77 938.104 1556.49 945.306 C 1596.77 970.055 1639.35 993.302 1679.53 1018.1 C 1651.17 1065.84 1623.08 1113.74 1595.26 1161.81 C 1585.09 1179.21 1574.72 1196.67 1564.74 1214.16 C 1561.53 1219.78 1554.88 1230.9 1552.52 1236.4 L 1550.54 1233.43 C 1555.19 1217.34 1558.87 1196.74 1562.75 1180.15 C 1572.9 1136.84 1581.39 1091.92 1592.35 1048.87 C 1558.42 1016.42 1522.65 978.993 1489.12 945.445 C 1462.37 980.375 1436.41 1018.03 1409.9 1053.57 C 1414.97 1073.12 1423.55 1097.98 1429.77 1117.71 L 1463.09 1224.09 L 1461.35 1228.46 L 1379.51 1111.61 C 1362.96 1087.87 1340.19 1054.02 1322.62 1031.66 C 1357.06 1006.02 1391.32 980.132 1425.39 953.999 C 1438.23 944.233 1463.73 926.642 1474.17 916.609 z" fill="rgb(249,64,33)" transform="translate(0,0)"></path>
<path d="M 1177.45 1852.66 C 1177.97 1849.61 1178.41 1846.56 1178.78 1843.49 C 1179.01 1841.49 1179.17 1839.99 1179.48 1837.99 C 1180.16 1841.37 1180.14 1841.39 1181.76 1844.54 C 1181.24 1847.45 1179.95 1851.09 1179.23 1854.53 L 1177.45 1852.66 z" fill="rgb(63,92,212)" transform="translate(0,0)"></path>
<path d="M 869.455 1838.65 C 870.223 1843.16 870.918 1848.07 871.375 1852.62 L 869.555 1853.43 C 868.947 1850.13 867.965 1847.92 867.466 1845 C 868.613 1843.28 869.178 1842.37 869.314 1840.31 L 869.455 1838.65 z" fill="rgb(63,92,212)" transform="translate(0,0)"></path>
<path d="M 1463.09 1224.09 L 1463.72 1226.03 C 1464.1 1227.18 1466.36 1232.1 1465.41 1233.2 C 1464.3 1233.24 1461.85 1229.18 1461.35 1228.46 L 1463.09 1224.09 z" fill="rgb(227,89,64)" transform="translate(0,0)"></path>
<path d="M 1552.52 1236.4 C 1552.35 1236.64 1550.4 1240.09 1549.5 1239.4 C 1549.01 1238.3 1550.27 1234.47 1550.54 1233.43 L 1552.52 1236.4 z" fill="rgb(227,89,64)" transform="translate(0,0)"></path>
<path d="M 871.375 1852.62 C 871.756 1853.65 872.804 1856.55 871.667 1857.39 C 870.839 1857.3 869.818 1854.07 869.555 1853.43 L 871.375 1852.62 z" fill="rgb(138,147,192)" transform="translate(0,0)"></path>
<path d="M 1177.45 1852.66 L 1179.23 1854.53 L 1178.88 1855.37 C 1178.6 1856.03 1178.26 1857.25 1177.5 1857.56 L 1177.33 1857.48 C 1176.65 1856.33 1177.21 1853.87 1177.45 1852.66 z" fill="rgb(138,147,192)" transform="translate(0,0)"></path>
<metadata><recraft-signature>{"signed_by": "recraft", "signature_b64": "6DSMEc8EVj/Jh0NZUYiaMbYyAXDxJTzdHZLuNUGK37Sg1ms+ULccVwnRkhXCQW9zCfGLSZNwE+Oe3pdMvBhTDQ==", "signing_algo": "Ed25519", "generation_timestamp": 1781387795, "identifier": "2f9e28f8-e2e0-4bee-af0d-f0b82793c48c"}</recraft-signature></metadata></svg>